P3
2 2
255
54 54 54 254 254 254 
254 254 254 54 54 54 
